<?xml version="1.0" encoding="UTF-8" standalone="no"?>
<!-- Created with Inkscape (http://www.inkscape.org/) -->

<svg
   xmlns:dc="http://purl.org/dc/elements/1.1/"
   xmlns:cc="http://creativecommons.org/ns#"
   xmlns:rdf="http://www.w3.org/1999/02/22-rdf-syntax-ns#"
   xmlns:svg="http://www.w3.org/2000/svg"
   xmlns="http://www.w3.org/2000/svg"
   xmlns:sodipodi="http://sodipodi.sourceforge.net/DTD/sodipodi-0.dtd"
   xmlns:inkscape="http://www.inkscape.org/namespaces/inkscape"
   id="svg4136"
   version="1.1"
   inkscape:version="0.91 r13725"
   width="880"
   height="706"
   viewBox="0 0 880 706"
   sodipodi:docname="temp-logo.svg">
  <metadata
     id="metadata4142">
    <rdf:RDF>
      <cc:Work
         rdf:about="">
        <dc:format>image/svg+xml</dc:format>
        <dc:type
           rdf:resource="http://purl.org/dc/dcmitype/StillImage" />
        <dc:title></dc:title>
      </cc:Work>
    </rdf:RDF>
  </metadata>
  <defs
     id="defs4140" />
  <sodipodi:namedview
     pagecolor="#ffffff"
     bordercolor="#666666"
     borderopacity="1"
     objecttolerance="10"
     gridtolerance="10"
     guidetolerance="10"
     inkscape:pageopacity="0"
     inkscape:pageshadow="2"
     inkscape:window-width="1920"
     inkscape:window-height="1017"
     id="namedview4138"
     showgrid="false"
     inkscape:zoom="0.81928236"
     inkscape:cx="319.8092"
     inkscape:cy="260.96897"
     inkscape:window-x="-8"
     inkscape:window-y="-8"
     inkscape:window-maximized="1"
     inkscape:current-layer="svg4136" />
  <path
     style="fill:#000000"
     d="M 293.76418,639.86068 C 287.18977,637.5658 272.64142,629.3454 149.36919,558.27172 111.54955,536.46648 101.83277,529.66876 88.238892,515.50588 55.407944,481.3007 34.395624,435.56786 32.675094,394.57254 c -1.13211,-26.97514 4.70985,-45.81316 17.97682,-57.96809 2.42667,-2.22327 71.514476,-42.67371 162.717276,-95.26987 87.175,-50.27335 175.6,-101.28039 196.5,-113.34898 20.9,-12.06859 48.575,-28.037857 61.5,-35.487267 12.925,-7.4494 36.325,-20.971 52,-30.04799 15.675,-9.07699 30.75,-17.53213 33.5,-18.78919 7.39426,-3.38001 17.22066,-4.67169 26.12156,-3.43369 16.46264,2.28974 20.17252,4.11717 88.37844,43.53382 27.02583,15.61841 99.1076,57.215497 123,70.981077 l 24.5,14.11566 0.27688,14.11313 0.27688,14.11314 -14.27688,8.22912 c -7.85228,4.52601 -19.34364,11.14353 -25.53636,14.7056 -6.19271,3.56206 -11.46632,6.81117 -11.71914,7.22023 -0.25281,0.40907 3.68441,3.1717 8.74939,6.13918 10.95225,6.41673 26.45429,21.25108 34.42109,32.93854 17.33911,25.43681 24.24136,53.53553 17.74977,72.25848 -3.31901,9.57267 -7.42614,12.58751 -52.44163,38.49483 -65.48346,37.68704 -80.21599,46.17542 -117.5,67.69947 -19.25,11.11302 -40.85,23.57782 -48,27.69955 -7.15,4.12173 -23.125,13.34485 -35.5,20.49582 -38.43821,22.21176 -106.44323,61.45111 -130,75.01086 -12.375,7.1233 -44.36429,25.5829 -71.0873,41.02134 -26.72302,15.43843 -50.57302,29.09407 -53,30.34586 -6.8156,3.51536 -18.31015,3.73153 -27.51771,0.51751 z m 12.18505,-30.47252 c 4.18134,-2.54978 6.61996,-8.07463 6.61996,-14.99795 0,-12.53853 -6.69864,-26.57574 -18.16539,-38.0662 -6.9792,-6.99361 -10.44634,-9.22846 -47.03461,-30.31762 -21.725,-12.52209 -58.85,-33.93457 -82.5,-47.58327 l -43,-24.81583 -0.27646,-14.00365 -0.27646,-14.00366 26.02195,-14.91307 c 14.31208,-8.20219 26.02398,-15.19625 26.02646,-15.54236 0.002,-0.34611 -5.50799,-3.78237 -12.24549,-7.63614 -6.7375,-3.85377 -19.45,-11.18192 -28.25,-16.28479 -19.92286,-11.55268 -28.95135,-14.91797 -40.071858,-14.9364 -4.71221,-0.008 -9.97046,0.63354 -12.63341,1.5409 -8.603098,2.93137 -16.332538,11.43381 -20.859598,22.94572 -2.119,5.38843 -2.35988,7.5799 -2.36321,21.5 -0.003,12.6848 0.39835,17.1019 2.21,24.3198 6.44537,25.67928 20.969228,51.37638 39.702908,70.24645 11.600948,11.68541 3.120688,6.49876 133.892328,81.8905 27.43244,15.81519 51.73244,29.59739 54,30.62711 5.56598,2.52756 15.08317,2.54265 19.20288,0.0305 z m 93.06449,-42.21565 c 33.47051,-19.30573 75.70547,-43.67283 93.85547,-54.14912 43.51638,-25.11792 128.74132,-74.28068 170,-98.06601 18.15,-10.46335 41.55,-23.96301 52,-29.99925 10.45,-6.03624 29.575,-17.04287 42.5,-24.45918 26.94325,-15.45991 33.59292,-19.93464 40.32073,-27.13286 11.01956,-11.79006 12.56936,-26.67138 4.55602,-43.74752 -3.80348,-8.10508 -12.37314,-18.94359 -19.03078,-24.06925 -5.60956,-4.31875 -38.59588,-23.60241 -40.38084,-23.60646 -1.06372,-0.002 -18.76234,10.05627 -77.96513,44.31006 -18.7,10.81952 -59.65,34.44978 -91,52.5117 -31.35,18.06191 -68.025,39.21294 -81.5,47.00229 -13.475,7.78935 -35.075,20.25568 -48,27.70297 -30.54811,17.60159 -50.59733,29.15876 -88.32908,50.91642 l -30.82908,17.7773 -61.67092,-35.578 c -33.91901,-19.56791 -62.6169,-36.01002 -63.7731,-36.53805 -1.73738,-0.79344 -4.60067,0.49912 -16.5,7.44853 -7.9188,4.62471 -19.46032,11.28345 -25.64782,14.79719 -6.1875,3.51374 -11.25,6.70522 -11.25,7.09218 0,0.83377 8.75043,5.9394 118.5,69.14151 23.812,13.71275 29.01427,17.43045 39.09416,27.93785 13.19431,13.75392 22.53011,29.0831 28.37889,46.59753 1.60001,4.79133 3.2186,11.074 3.59686,13.9615 0.37827,2.8875 1.03232,5.25 1.45345,5.25 0.42114,0 28.15067,-15.7956 61.62117,-35.10133 z m -46.66396,-33.64867 c -3.55813,-5.3625 -7.27336,-10.93983 -8.25607,-12.39406 l -1.78676,-2.64407 24.78113,-14.27873 c 13.62962,-7.8533 37.38113,-21.55594 52.78113,-30.4503 15.4,-8.89436 43.075,-24.86164 61.5,-35.48284 18.425,-10.6212 46.1,-26.59086 61.5,-35.48812 24.31068,-14.04537 71.74563,-41.40373 115,-66.32687 7.15,-4.11983 28.84739,-16.6418 48.21643,-27.82661 19.36903,-11.18481 35.60898,-20.45355 36.08876,-20.59721 1.59971,-0.47898 16.18222,8.43514 18.70647,11.43504 4.97728,5.91515 2.27511,11.24345 -9.11261,17.96877 -4.34448,2.56575 -16.44905,9.57901 -26.89905,15.58501 -29.40605,16.90076 -109.52763,63.09533 -134,77.25849 -29.36305,16.9936 -44.12346,25.51449 -74.5,43.00737 -14.025,8.07655 -38.775,22.32946 -55,31.67313 -16.225,9.34366 -45.58111,26.28605 -65.2358,37.64974 -19.65469,11.36369 -36.09096,20.66126 -36.52505,20.66126 -0.43409,0 -3.70045,-4.3875 -7.25858,-9.75 z m -15.33604,-85.61326 c 5.97051,-3.49979 21.43047,-12.44779 34.35547,-19.88443 12.925,-7.43665 40.6,-23.3941 61.5,-35.461 20.9,-12.06689 60.5,-34.90645 88,-50.75457 47.68916,-27.48304 65.36987,-37.68356 176,-101.53959 26.4,-15.23816 59.13564,-34.11127 72.74587,-41.94025 13.61023,-7.82899 24.93166,-14.53514 25.15875,-14.90257 0.22708,-0.36742 -17.88356,-11.21199 -40.24587,-24.09904 -22.36231,-12.88705 -62.48375,-36.01129 -89.15875,-51.38719 -26.675,-15.375897 -51.425,-29.420377 -55,-31.209957 -19.32862,-9.67553 -38.23522,-10.66109 -57.14176,-2.97867 -5.66131,2.3004 -9.72292,4.55638 -46.85824,26.02707 -10.175,5.882917 -29.075,16.786657 -42,24.230537 -12.925,7.44388 -29.125,16.78413 -36,20.75611 -6.875,3.97199 -20.15,11.64191 -29.5,17.04428 -9.35,5.40236 -27.125,15.65245 -39.5,22.77797 -12.375,7.12553 -34.2,19.71124 -48.5,27.96826 -14.3,8.25702 -37.475,21.63019 -51.5,29.71815 -14.025,8.08797 -36.3,20.94572 -49.5,28.57276 -13.2,7.62705 -41.30789,23.84159 -62.46198,36.03231 -21.15409,12.19073 -38.57999,22.55378 -38.72423,23.02902 -0.14423,0.47523 1.86366,1.8015 4.46198,2.94725 2.59833,1.14575 28.34923,15.72772 57.22423,32.40437 28.875,16.67666 72.975,42.11852 98,56.53748 25.025,14.41897 47.75,27.58996 50.5,29.26888 2.75,1.67892 5.51504,3.08712 6.14453,3.12933 0.6295,0.0422 6.0295,-2.78672 12,-6.28651 z m -45.71844,-78.7736 c -79.84516,-47.67247 -89.23762,-53.37559 -89.33119,-54.24199 -0.0916,-0.84832 132.07393,-75.58029 133.71422,-75.60765 0.72991,-0.0122 26.67641,15.34225 104.43861,61.8039 14.43626,8.62543 26.12144,16.06457 25.96707,16.53142 -0.15438,0.46685 -11.29086,7.01698 -24.74774,14.55584 -13.45688,7.53886 -43.47592,24.36939 -66.70898,37.40118 -23.23306,13.03179 -42.39132,23.69416 -42.57391,23.69416 -0.1826,0 -18.52374,-10.86159 -40.75808,-24.13686 z m 190.60729,-74.34051 c -6.58165,-4.0273 -12.1058,-7.73989 -12.2759,-8.25019 -0.1701,-0.51029 0.7841,-1.42599 2.12045,-2.03487 1.33634,-0.60888 22.38549,-12.31946 46.77589,-26.02351 42.27491,-23.75269 123.38787,-69.27142 147.7867,-82.9345 6.29228,-3.52362 11.77344,-6.49049 12.18035,-6.59307 0.91227,-0.22995 25.88763,14.52214 25.85729,15.27302 -0.012,0.29727 -4.17451,2.84899 -9.25,5.67049 -20.69678,11.5055 -81.44628,45.56336 -107.22816,60.1151 -43.92187,24.79026 -91.38989,51.26568 -92.61906,51.65854 -0.75952,0.24275 -6.76592,-2.85371 -13.34756,-6.88101 z m -53.30144,-31.77263 c -6.6974,-3.9875 -12.18943,-7.49317 -12.20451,-7.79038 -0.0238,-0.46919 41.49085,-23.94943 121.97257,-68.98634 43.05831,-24.09507 82.51666,-46.22139 85.11408,-47.72782 2.52867,-1.46656 3.02637,-1.2748 15.23353,5.86922 6.94071,4.06193 12.49041,7.79472 12.33267,8.2951 -0.15774,0.50038 -12.63783,7.85136 -27.73354,16.33552 -33.39895,18.77103 -75.34916,42.32095 -115.44674,64.80924 -16.5,9.25385 -37.85458,21.23974 -47.45463,26.63532 -9.60005,5.39558 -17.94551,9.81014 -18.54549,9.81014 -0.59997,0 -6.57054,-3.2625 -13.26794,-7.25 z M 376.6157,231.93027 c -6.73942,-4.03155 -12.51019,-7.58678 -12.82393,-7.90052 -0.31374,-0.31374 5.65033,-4.0577 13.25349,-8.3199 7.60316,-4.26221 18.77393,-10.54901 24.82393,-13.97066 55.23082,-31.23652 169.27288,-94.8547 170.71071,-95.2307 1.88944,-0.4941 25.78929,13.13629 25.78929,14.70796 0,0.46703 -8.6625,5.68954 -19.25,11.60558 -10.5875,5.91604 -39.275,21.98956 -63.75,35.71893 -24.475,13.72936 -55.75,31.26562 -69.5,38.96944 -13.75,7.70383 -32.02882,18.00217 -40.61959,22.8852 -8.59078,4.88303 -15.79078,8.8752 -16,8.8715 -0.20923,-0.004 -5.89448,-3.30529 -12.6339,-7.33683 z"
     id="path4146"
     inkscape:connector-curvature="0" />
</svg>
